<svg xmlns="http://www.w3.org/2000/svg" width="133" height="134" viewBox="0 0 133 134" fill="none">
<path fill-rule="evenodd" clip-rule="evenodd" d="M130.291 115.377C129.01 118.646 126.051 123.24 121.81 126.508C119.381 128.364 116.465 130.175 112.49 131.367C108.249 132.648 102.993 133.046 96.4552 133.046H36.8229C30.2854 133.046 25.0731 132.604 20.7884 131.367C16.8129 130.175 13.8975 128.408 11.4681 126.508C7.27171 123.284 4.26801 118.646 2.98701 115.377C0.425031 108.795 0.380859 101.33 0.380859 96.6039V36.9715C0.380859 32.2451 0.425031 24.78 2.98701 18.1983C4.26801 14.9296 7.22754 10.3357 11.4681 7.06695C13.8975 5.21173 16.8129 3.40067 20.7884 2.20802C25.0731 0.971201 30.2854 0.52948 36.8229 0.52948H96.4552C102.993 0.52948 108.205 0.971201 112.49 2.20802C116.465 3.40067 119.381 5.16755 121.81 7.06695C126.006 10.2915 129.01 14.9296 130.291 18.1983C132.897 24.78 132.897 32.2892 132.897 36.9715V96.6039C132.897 101.33 132.853 108.795 130.291 115.377Z" fill="#fff"/>
<path d="M77.9913 80.5252C77.8146 78.935 77.2845 77.7865 76.2244 76.7264C74.2366 74.6503 70.747 73.281 66.639 73.281C62.531 73.281 59.0414 74.6061 57.0537 76.7264C56.0377 77.8307 55.4635 78.935 55.2868 80.5252C54.9334 83.6173 55.1543 86.2676 55.5077 90.5523C55.861 94.6161 56.5236 100.049 57.3629 105.527C57.9813 109.458 58.4672 111.578 58.9089 113.08C59.6598 115.554 62.3543 117.674 66.639 117.674C70.9237 117.674 73.6624 115.51 74.3692 113.08C74.8109 111.578 75.2968 109.458 75.9152 105.527C76.7544 100.005 77.417 94.6161 77.7704 90.5523C78.168 86.2676 78.3446 83.6173 77.9913 80.5252Z" fill="#323538"/>
<path d="M77.5053 57.9974C77.5053 64.0048 72.6464 68.8637 66.639 68.8637C60.6316 68.8637 55.7726 64.0048 55.7726 57.9974C55.7726 51.99 60.6316 47.131 66.639 47.131C72.6464 47.131 77.5053 52.0342 77.5053 57.9974Z" fill="#323538"/>
<path d="M66.5065 15.1946C41.1517 15.2829 20.3908 35.8671 20.0375 61.2219C19.7724 81.762 32.8915 99.3425 51.223 105.792C51.6647 105.968 52.1064 105.571 52.0622 105.129C51.8414 103.539 51.5763 101.949 51.3997 100.358C51.3113 99.7842 50.9579 99.3425 50.472 99.0775C35.9836 92.7608 25.8682 78.2282 26.0449 61.3986C26.2657 39.3126 44.2879 21.3345 66.3298 21.1578C88.9018 20.9811 107.322 39.2684 107.322 61.7962C107.322 78.4491 97.2503 92.7608 82.8944 99.0775C82.3643 99.2983 82.0109 99.7842 81.9668 100.358C81.7459 101.949 81.525 103.539 81.3042 105.129C81.2158 105.615 81.7017 105.968 82.1435 105.792C100.298 99.4308 113.329 82.1154 113.329 61.7962C113.241 36.088 92.2589 15.1504 66.5065 15.1946Z" fill="#323538"/>
<path d="M65.4464 30.6548C48.926 31.2733 35.6744 44.9224 35.4535 61.4428C35.321 72.3092 40.7542 81.9387 49.1027 87.6369C49.5003 87.9019 50.0745 87.5927 50.0745 87.1068C49.942 85.2074 49.942 83.5289 50.0303 81.762C50.0745 81.1877 49.8537 80.6577 49.4119 80.2601C44.3321 75.4895 41.2401 68.687 41.4168 61.1778C41.7702 47.9261 52.4156 37.1481 65.6673 36.6181C80.0674 36.0438 91.9055 47.6169 91.9055 61.8404C91.9055 69.0846 88.8135 75.6221 83.9104 80.2601C83.5128 80.6577 83.292 81.1877 83.292 81.762C83.3803 83.4847 83.3361 85.1632 83.2478 87.0626C83.2036 87.5485 83.7778 87.9019 84.2196 87.5927C92.4356 81.9829 97.8687 72.4858 97.8687 61.7962C97.9129 44.2157 83.2036 29.9481 65.4464 30.6548Z" fill="#323538"/>
</svg>