<svg xmlns="http://www.w3.org/2000/svg" width="29" height="29" viewBox="0 0 29 29" fill="none">
<path d="M24.5497 5.0213C22.7014 4.17319 20.7193 3.54834 18.6469 3.19047C18.6091 3.18356 18.5714 3.20082 18.552 3.23534C18.2971 3.68873 18.0147 4.2802 17.817 4.7451C15.588 4.4114 13.3704 4.4114 11.1871 4.7451C10.9894 4.26987 10.6968 3.68873 10.4407 3.23534C10.4213 3.20197 10.3836 3.18471 10.3458 3.19047C8.27456 3.5472 6.29247 4.17205 4.44296 5.0213C4.42695 5.0282 4.41323 5.03972 4.40412 5.05467C0.644515 10.6714 -0.385398 16.1502 0.119843 21.5609C0.122129 21.5874 0.136989 21.6127 0.157564 21.6288C2.63804 23.4504 5.04081 24.5563 7.39896 25.2893C7.4367 25.3008 7.47669 25.287 7.50071 25.2559C8.05853 24.4942 8.55578 23.691 8.98212 22.8463C9.00728 22.7968 8.98326 22.7381 8.93184 22.7186C8.14312 22.4194 7.3921 22.0546 6.66967 21.6403C6.61253 21.607 6.60796 21.5252 6.66052 21.4861C6.81255 21.3722 6.96462 21.2537 7.10978 21.134C7.13604 21.1121 7.17264 21.1075 7.20352 21.1213C11.9496 23.2882 17.0877 23.2882 21.7777 21.1213C21.8086 21.1064 21.8452 21.111 21.8726 21.1328C22.0178 21.2525 22.1698 21.3722 22.323 21.4861C22.3756 21.5252 22.3722 21.607 22.315 21.6403C21.5926 22.0626 20.8416 22.4194 20.0517 22.7174C20.0003 22.737 19.9774 22.7968 20.0026 22.8463C20.4381 23.6898 20.9353 24.493 21.4828 25.2548C21.5057 25.287 21.5468 25.3008 21.5846 25.2893C23.9542 24.5563 26.3569 23.4504 28.8374 21.6288C28.8591 21.6127 28.8728 21.5885 28.8751 21.5621C29.4798 15.3066 27.8623 9.87283 24.5874 5.05581C24.5794 5.03972 24.5657 5.0282 24.5497 5.0213ZM9.69086 18.2663C8.26198 18.2663 7.08462 16.9545 7.08462 15.3435C7.08462 13.7324 8.23915 12.4206 9.69086 12.4206C11.154 12.4206 12.3199 13.7439 12.2971 15.3435C12.2971 16.9545 11.1425 18.2663 9.69086 18.2663ZM19.327 18.2663C17.8981 18.2663 16.7208 16.9545 16.7208 15.3435C16.7208 13.7324 17.8753 12.4206 19.327 12.4206C20.7901 12.4206 21.9561 13.7439 21.9332 15.3435C21.9332 16.9545 20.7901 18.2663 19.327 18.2663Z" fill="white"/>
</svg>