<svg width="27" height="27" viewBox="0 0 27 27" fill="none" xmlns="http://www.w3.org/2000/svg">
<g clip-path="url(#clip0_532_233)">
<path d="M13.4998 11.0454V16.2736H20.7652C20.4462 17.955 19.4888 19.3787 18.0529 20.3359L22.4342 23.7355C24.9869 21.3792 26.4597 17.9183 26.4597 13.8069C26.4597 12.8497 26.3738 11.9291 26.2142 11.0456L13.4998 11.0454Z" fill="white"/>
<path d="M5.93406 16.0696L4.9459 16.826L1.44812 19.5505C3.66948 23.9564 8.22232 27.0001 13.4996 27.0001C17.1445 27.0001 20.2003 25.7973 22.434 23.7356L18.0527 20.336C16.8499 21.146 15.3158 21.6369 13.4996 21.6369C9.98957 21.6369 7.00739 19.2683 5.93958 16.0774L5.93406 16.0696Z" fill="white"/>
<path d="M1.44808 7.44946C0.527672 9.26575 0 11.3153 0 13.4998C0 15.6843 0.527672 17.7339 1.44808 19.5502C1.44808 19.5624 5.93997 16.0648 5.93997 16.0648C5.66997 15.2548 5.51038 14.3957 5.51038 13.4997C5.51038 12.6037 5.66997 11.7446 5.93997 10.9346L1.44808 7.44946Z" fill="white"/>
<path d="M13.4998 5.37545C15.488 5.37545 17.2553 6.0627 18.6666 7.38818L22.5325 3.52232C20.1884 1.33781 17.1449 0 13.4998 0C8.2226 0 3.66948 3.03136 1.44812 7.44955L5.93988 10.935C7.00754 7.74407 9.98985 5.37545 13.4998 5.37545Z" fill="white"/>
</g>
<defs>
<clipPath id="clip0_532_233">
<rect width="27" height="27" fill="white"/>
</clipPath>
</defs>
</svg>
