<svg width="780" height="119" viewBox="0 0 780 119" fill="none" xmlns="http://www.w3.org/2000/svg">
<path d="M7.42776 23.8H23.9398V91H7.42776V23.8ZM53.5378 56.728L49.5058 91H32.4178L43.2658 20.44L71.8738 61.432L100.578 20.44L111.426 91H94.3378L90.3058 56.728L71.8738 84.76L53.5378 56.728ZM119.838 23.8H136.062V91H119.838V23.8ZM130.014 37.144V23.8H143.166C148.862 23.8 153.63 24.696 157.47 26.488C161.374 28.216 164.318 30.712 166.302 33.976C168.286 37.24 169.278 41.176 169.278 45.784C169.278 50.264 168.286 54.168 166.302 57.496C164.318 60.76 161.374 63.288 157.47 65.08C153.63 66.808 148.862 67.672 143.166 67.672H130.014V54.328H143.166C146.43 54.328 148.99 53.592 150.846 52.12C152.702 50.648 153.63 48.536 153.63 45.784C153.63 42.968 152.702 40.824 150.846 39.352C148.99 37.88 146.43 37.144 143.166 37.144H130.014ZM194.53 60.568H211.33L232.354 91H213.346L194.53 60.568ZM177.73 23.8H193.954V91H177.73V23.8ZM187.906 37.528V23.8H202.21C207.97 23.8 212.77 24.728 216.61 26.584C220.45 28.44 223.362 31.032 225.346 34.36C227.33 37.624 228.322 41.432 228.322 45.784C228.322 50.072 227.33 53.88 225.346 57.208C223.362 60.472 220.45 63.032 216.61 64.888C212.77 66.744 207.97 67.672 202.21 67.672H187.906V55.096H201.058C203.234 55.096 205.09 54.776 206.626 54.136C208.226 53.432 209.442 52.44 210.274 51.16C211.106 49.816 211.522 48.216 211.522 46.36C211.522 44.504 211.106 42.936 210.274 41.656C209.442 40.312 208.226 39.288 206.626 38.584C205.09 37.88 203.234 37.528 201.058 37.528H187.906ZM251.311 57.4C251.311 61.368 252.079 64.888 253.615 67.96C255.215 70.968 257.423 73.336 260.239 75.064C263.119 76.792 266.479 77.656 270.319 77.656C274.095 77.656 277.391 76.792 280.207 75.064C283.087 73.336 285.295 70.968 286.831 67.96C288.431 64.888 289.231 61.368 289.231 57.4C289.231 53.432 288.463 49.944 286.927 46.936C285.391 43.864 283.215 41.464 280.399 39.736C277.583 38.008 274.223 37.144 270.319 37.144C266.479 37.144 263.119 38.008 260.239 39.736C257.423 41.464 255.215 43.864 253.615 46.936C252.079 49.944 251.311 53.432 251.311 57.4ZM234.127 57.4C234.127 52.216 235.023 47.48 236.815 43.192C238.671 38.904 241.231 35.192 244.495 32.056C247.759 28.92 251.599 26.52 256.015 24.856C260.431 23.128 265.199 22.264 270.319 22.264C275.503 22.264 280.271 23.128 284.623 24.856C289.039 26.52 292.879 28.92 296.143 32.056C299.407 35.192 301.935 38.904 303.727 43.192C305.519 47.48 306.415 52.216 306.415 57.4C306.415 62.584 305.519 67.352 303.727 71.704C301.999 76.056 299.503 79.832 296.239 83.032C293.039 86.232 289.231 88.728 284.815 90.52C280.399 92.248 275.567 93.112 270.319 93.112C265.007 93.112 260.143 92.248 255.727 90.52C251.311 88.728 247.471 86.232 244.207 83.032C241.007 79.832 238.511 76.056 236.719 71.704C234.991 67.352 234.127 62.584 234.127 57.4ZM340.112 63.928L356.528 23.8H375.536L340.112 95.224L304.784 23.8H323.696L340.112 63.928ZM407.519 23.8H424.031V91H407.519V23.8ZM443.741 67.384C445.085 69.816 446.589 71.928 448.253 73.72C449.981 75.512 451.837 76.888 453.821 77.848C455.869 78.808 458.013 79.288 460.253 79.288C462.621 79.288 464.573 78.712 466.109 77.56C467.645 76.344 468.413 74.712 468.413 72.664C468.413 70.936 467.965 69.56 467.069 68.536C466.173 67.448 464.733 66.424 462.749 65.464C460.765 64.504 458.141 63.416 454.877 62.2C453.277 61.624 451.421 60.824 449.309 59.8C447.261 58.776 445.309 57.464 443.453 55.864C441.597 54.2 440.061 52.216 438.845 49.912C437.629 47.544 437.021 44.696 437.021 41.368C437.021 37.4 438.045 33.976 440.093 31.096C442.205 28.216 445.021 26.04 448.541 24.568C452.125 23.032 456.093 22.264 460.445 22.264C464.925 22.264 468.797 23 472.061 24.472C475.389 25.944 478.141 27.8 480.317 30.04C482.493 32.28 484.157 34.552 485.309 36.856L472.925 43.768C471.965 42.168 470.845 40.792 469.565 39.64C468.349 38.424 466.973 37.496 465.437 36.856C463.965 36.152 462.365 35.8 460.637 35.8C458.333 35.8 456.573 36.312 455.357 37.336C454.141 38.296 453.533 39.512 453.533 40.984C453.533 42.52 454.109 43.864 455.261 45.016C456.477 46.168 458.173 47.224 460.349 48.184C462.589 49.144 465.277 50.168 468.413 51.256C470.781 52.152 472.989 53.208 475.037 54.424C477.085 55.576 478.877 56.984 480.413 58.648C482.013 60.312 483.261 62.232 484.157 64.408C485.053 66.584 485.501 69.08 485.501 71.896C485.501 75.288 484.797 78.328 483.389 81.016C482.045 83.64 480.189 85.848 477.821 87.64C475.517 89.432 472.861 90.776 469.853 91.672C466.909 92.632 463.869 93.112 460.733 93.112C456.381 93.112 452.317 92.344 448.541 90.808C444.829 89.208 441.597 87.064 438.845 84.376C436.093 81.688 433.949 78.744 432.413 75.544L443.741 67.384ZM521.29 23.8H537.994V91H521.29V23.8ZM545.29 91H532.042V76.6H544.714C547.274 76.6 549.738 76.28 552.106 75.64C554.538 75 556.65 73.944 558.442 72.472C560.298 71 561.77 69.048 562.858 66.616C563.946 64.12 564.49 61.048 564.49 57.4C564.49 53.752 563.946 50.712 562.858 48.28C561.77 45.784 560.298 43.8 558.442 42.328C556.65 40.856 554.538 39.8 552.106 39.16C549.738 38.52 547.274 38.2 544.714 38.2H532.042V23.8H545.29C552.65 23.8 559.018 25.176 564.394 27.928C569.77 30.68 573.93 34.552 576.874 39.544C579.818 44.536 581.29 50.488 581.29 57.4C581.29 64.248 579.818 70.2 576.874 75.256C573.93 80.248 569.77 84.12 564.394 86.872C559.018 89.624 552.65 91 545.29 91ZM600.528 91V77.656H634.416V91H600.528ZM600.528 37.144V23.8H634.416V37.144H600.528ZM600.528 62.2V49.144H632.496V62.2H600.528ZM589.776 23.8H605.328V91H589.776V23.8ZM656.26 78.04L657.412 65.656H690.724L691.78 78.04H656.26ZM673.828 48.472L664.42 70.168L665.188 73.72L656.836 91H638.5L673.828 19.576L709.252 91H690.82L682.756 74.392L683.332 70.264L673.828 48.472ZM714.374 23.8H731.078V91H714.374V23.8ZM738.374 91H725.126V76.6H737.798C740.358 76.6 742.822 76.28 745.19 75.64C747.622 75 749.734 73.944 751.526 72.472C753.382 71 754.854 69.048 755.942 66.616C757.03 64.12 757.574 61.048 757.574 57.4C757.574 53.752 757.03 50.712 755.942 48.28C754.854 45.784 753.382 43.8 751.526 42.328C749.734 40.856 747.622 39.8 745.19 39.16C742.822 38.52 740.358 38.2 737.798 38.2H725.126V23.8H738.374C745.734 23.8 752.102 25.176 757.478 27.928C762.854 30.68 767.014 34.552 769.958 39.544C772.902 44.536 774.374 50.488 774.374 57.4C774.374 64.248 772.902 70.2 769.958 75.256C767.014 80.248 762.854 84.12 757.478 86.872C752.102 89.624 745.734 91 738.374 91Z" fill="white"/>
<mask id="path-2-outside-1_551_31" maskUnits="userSpaceOnUse" x="7" y="19" width="772" height="85" fill="black">
<rect fill="white" x="7" y="19" width="772" height="85"/>
<path d="M9.42776 27.8H25.9398V95H9.42776V27.8ZM55.5378 60.728L51.5058 95H34.4178L45.2658 24.44L73.8738 65.432L102.578 24.44L113.426 95H96.3378L92.3058 60.728L73.8738 88.76L55.5378 60.728ZM121.838 27.8H138.062V95H121.838V27.8ZM132.014 41.144V27.8H145.166C150.862 27.8 155.63 28.696 159.47 30.488C163.374 32.216 166.318 34.712 168.302 37.976C170.286 41.24 171.278 45.176 171.278 49.784C171.278 54.264 170.286 58.168 168.302 61.496C166.318 64.76 163.374 67.288 159.47 69.08C155.63 70.808 150.862 71.672 145.166 71.672H132.014V58.328H145.166C148.43 58.328 150.99 57.592 152.846 56.12C154.702 54.648 155.63 52.536 155.63 49.784C155.63 46.968 154.702 44.824 152.846 43.352C150.99 41.88 148.43 41.144 145.166 41.144H132.014ZM196.53 64.568H213.33L234.354 95H215.346L196.53 64.568ZM179.73 27.8H195.954V95H179.73V27.8ZM189.906 41.528V27.8H204.21C209.97 27.8 214.77 28.728 218.61 30.584C222.45 32.44 225.362 35.032 227.346 38.36C229.33 41.624 230.322 45.432 230.322 49.784C230.322 54.072 229.33 57.88 227.346 61.208C225.362 64.472 222.45 67.032 218.61 68.888C214.77 70.744 209.97 71.672 204.21 71.672H189.906V59.096H203.058C205.234 59.096 207.09 58.776 208.626 58.136C210.226 57.432 211.442 56.44 212.274 55.16C213.106 53.816 213.522 52.216 213.522 50.36C213.522 48.504 213.106 46.936 212.274 45.656C211.442 44.312 210.226 43.288 208.626 42.584C207.09 41.88 205.234 41.528 203.058 41.528H189.906ZM253.311 61.4C253.311 65.368 254.079 68.888 255.615 71.96C257.215 74.968 259.423 77.336 262.239 79.064C265.119 80.792 268.479 81.656 272.319 81.656C276.095 81.656 279.391 80.792 282.207 79.064C285.087 77.336 287.295 74.968 288.831 71.96C290.431 68.888 291.231 65.368 291.231 61.4C291.231 57.432 290.463 53.944 288.927 50.936C287.391 47.864 285.215 45.464 282.399 43.736C279.583 42.008 276.223 41.144 272.319 41.144C268.479 41.144 265.119 42.008 262.239 43.736C259.423 45.464 257.215 47.864 255.615 50.936C254.079 53.944 253.311 57.432 253.311 61.4ZM236.127 61.4C236.127 56.216 237.023 51.48 238.815 47.192C240.671 42.904 243.231 39.192 246.495 36.056C249.759 32.92 253.599 30.52 258.015 28.856C262.431 27.128 267.199 26.264 272.319 26.264C277.503 26.264 282.271 27.128 286.623 28.856C291.039 30.52 294.879 32.92 298.143 36.056C301.407 39.192 303.935 42.904 305.727 47.192C307.519 51.48 308.415 56.216 308.415 61.4C308.415 66.584 307.519 71.352 305.727 75.704C303.999 80.056 301.503 83.832 298.239 87.032C295.039 90.232 291.231 92.728 286.815 94.52C282.399 96.248 277.567 97.112 272.319 97.112C267.007 97.112 262.143 96.248 257.727 94.52C253.311 92.728 249.471 90.232 246.207 87.032C243.007 83.832 240.511 80.056 238.719 75.704C236.991 71.352 236.127 66.584 236.127 61.4ZM342.112 67.928L358.528 27.8H377.536L342.112 99.224L306.784 27.8H325.696L342.112 67.928ZM409.519 27.8H426.031V95H409.519V27.8ZM445.741 71.384C447.085 73.816 448.589 75.928 450.253 77.72C451.981 79.512 453.837 80.888 455.821 81.848C457.869 82.808 460.013 83.288 462.253 83.288C464.621 83.288 466.573 82.712 468.109 81.56C469.645 80.344 470.413 78.712 470.413 76.664C470.413 74.936 469.965 73.56 469.069 72.536C468.173 71.448 466.733 70.424 464.749 69.464C462.765 68.504 460.141 67.416 456.877 66.2C455.277 65.624 453.421 64.824 451.309 63.8C449.261 62.776 447.309 61.464 445.453 59.864C443.597 58.2 442.061 56.216 440.845 53.912C439.629 51.544 439.021 48.696 439.021 45.368C439.021 41.4 440.045 37.976 442.093 35.096C444.205 32.216 447.021 30.04 450.541 28.568C454.125 27.032 458.093 26.264 462.445 26.264C466.925 26.264 470.797 27 474.061 28.472C477.389 29.944 480.141 31.8 482.317 34.04C484.493 36.28 486.157 38.552 487.309 40.856L474.925 47.768C473.965 46.168 472.845 44.792 471.565 43.64C470.349 42.424 468.973 41.496 467.437 40.856C465.965 40.152 464.365 39.8 462.637 39.8C460.333 39.8 458.573 40.312 457.357 41.336C456.141 42.296 455.533 43.512 455.533 44.984C455.533 46.52 456.109 47.864 457.261 49.016C458.477 50.168 460.173 51.224 462.349 52.184C464.589 53.144 467.277 54.168 470.413 55.256C472.781 56.152 474.989 57.208 477.037 58.424C479.085 59.576 480.877 60.984 482.413 62.648C484.013 64.312 485.261 66.232 486.157 68.408C487.053 70.584 487.501 73.08 487.501 75.896C487.501 79.288 486.797 82.328 485.389 85.016C484.045 87.64 482.189 89.848 479.821 91.64C477.517 93.432 474.861 94.776 471.853 95.672C468.909 96.632 465.869 97.112 462.733 97.112C458.381 97.112 454.317 96.344 450.541 94.808C446.829 93.208 443.597 91.064 440.845 88.376C438.093 85.688 435.949 82.744 434.413 79.544L445.741 71.384ZM523.29 27.8H539.994V95H523.29V27.8ZM547.29 95H534.042V80.6H546.714C549.274 80.6 551.738 80.28 554.106 79.64C556.538 79 558.65 77.944 560.442 76.472C562.298 75 563.77 73.048 564.858 70.616C565.946 68.12 566.49 65.048 566.49 61.4C566.49 57.752 565.946 54.712 564.858 52.28C563.77 49.784 562.298 47.8 560.442 46.328C558.65 44.856 556.538 43.8 554.106 43.16C551.738 42.52 549.274 42.2 546.714 42.2H534.042V27.8H547.29C554.65 27.8 561.018 29.176 566.394 31.928C571.77 34.68 575.93 38.552 578.874 43.544C581.818 48.536 583.29 54.488 583.29 61.4C583.29 68.248 581.818 74.2 578.874 79.256C575.93 84.248 571.77 88.12 566.394 90.872C561.018 93.624 554.65 95 547.29 95ZM602.528 95V81.656H636.416V95H602.528ZM602.528 41.144V27.8H636.416V41.144H602.528ZM602.528 66.2V53.144H634.496V66.2H602.528ZM591.776 27.8H607.328V95H591.776V27.8ZM658.26 82.04L659.412 69.656H692.724L693.78 82.04H658.26ZM675.828 52.472L666.42 74.168L667.188 77.72L658.836 95H640.5L675.828 23.576L711.252 95H692.82L684.756 78.392L685.332 74.264L675.828 52.472ZM716.374 27.8H733.078V95H716.374V27.8ZM740.374 95H727.126V80.6H739.798C742.358 80.6 744.822 80.28 747.19 79.64C749.622 79 751.734 77.944 753.526 76.472C755.382 75 756.854 73.048 757.942 70.616C759.03 68.12 759.574 65.048 759.574 61.4C759.574 57.752 759.03 54.712 757.942 52.28C756.854 49.784 755.382 47.8 753.526 46.328C751.734 44.856 749.622 43.8 747.19 43.16C744.822 42.52 742.358 42.2 739.798 42.2H727.126V27.8H740.374C747.734 27.8 754.102 29.176 759.478 31.928C764.854 34.68 769.014 38.552 771.958 43.544C774.902 48.536 776.374 54.488 776.374 61.4C776.374 68.248 774.902 74.2 771.958 79.256C769.014 84.248 764.854 88.12 759.478 90.872C754.102 93.624 747.734 95 740.374 95Z"/>
</mask>
<path d="M9.42776 27.8V25.8H7.42776V27.8H9.42776ZM25.9398 27.8H27.9398V25.8H25.9398V27.8ZM25.9398 95V97H27.9398V95H25.9398ZM9.42776 95H7.42776V97H9.42776V95ZM9.42776 29.8H25.9398V25.8H9.42776V29.8ZM23.9398 27.8V95H27.9398V27.8H23.9398ZM25.9398 93H9.42776V97H25.9398V93ZM11.4278 95V27.8H7.42776V95H11.4278ZM55.5378 60.728L57.2115 59.6332L54.1953 55.022L53.5515 60.4943L55.5378 60.728ZM51.5058 95V97H53.2843L53.4921 95.2337L51.5058 95ZM34.4178 95L32.441 94.6961L32.0868 97H34.4178V95ZM45.2658 24.44L46.9058 23.2954L44.0478 19.2002L43.289 24.1361L45.2658 24.44ZM73.8738 65.432L72.2337 66.5766L73.871 68.9227L75.512 66.5792L73.8738 65.432ZM102.578 24.44L104.555 24.1361L103.797 19.2114L100.939 23.2928L102.578 24.44ZM113.426 95V97H115.757L115.403 94.6961L113.426 95ZM96.3378 95L94.3515 95.2337L94.5593 97H96.3378V95ZM92.3058 60.728L94.2921 60.4943L93.6507 55.0423L90.6347 59.6292L92.3058 60.728ZM73.8738 88.76L72.2 89.8548L73.8694 92.4069L75.5449 89.8588L73.8738 88.76ZM53.5515 60.4943L49.5195 94.7663L53.4921 95.2337L57.5241 60.9617L53.5515 60.4943ZM51.5058 93H34.4178V97H51.5058V93ZM36.3945 95.3039L47.2425 24.7439L43.289 24.1361L32.441 94.6961L36.3945 95.3039ZM43.6257 25.5846L72.2337 66.5766L75.5138 64.2874L46.9058 23.2954L43.6257 25.5846ZM75.512 66.5792L104.216 25.5872L100.939 23.2928L72.2355 64.2848L75.512 66.5792ZM100.601 24.7439L111.449 95.3039L115.403 94.6961L104.555 24.1361L100.601 24.7439ZM113.426 93H96.3378V97H113.426V93ZM98.3241 94.7663L94.2921 60.4943L90.3195 60.9617L94.3515 95.2337L98.3241 94.7663ZM90.6347 59.6292L72.2027 87.6612L75.5449 89.8588L93.9769 61.8268L90.6347 59.6292ZM75.5475 87.6652L57.2115 59.6332L53.864 61.8228L72.2 89.8548L75.5475 87.6652ZM121.838 27.8V25.8H119.838V27.8H121.838ZM138.062 27.8H140.062V25.8H138.062V27.8ZM138.062 95V97H140.062V95H138.062ZM121.838 95H119.838V97H121.838V95ZM132.014 41.144H130.014V43.144H132.014V41.144ZM132.014 27.8V25.8H130.014V27.8H132.014ZM159.47 30.488L158.624 32.3004L158.642 32.3088L158.66 32.3169L159.47 30.488ZM168.302 61.496L170.011 62.5348L170.015 62.5275L170.02 62.5201L168.302 61.496ZM159.47 69.08L160.29 70.9038L160.297 70.9008L160.304 70.8977L159.47 69.08ZM132.014 71.672H130.014V73.672H132.014V71.672ZM132.014 58.328V56.328H130.014V58.328H132.014ZM152.846 56.12L151.603 54.553L151.603 54.553L152.846 56.12ZM152.846 43.352L151.603 44.919L151.603 44.919L152.846 43.352ZM121.838 29.8H138.062V25.8H121.838V29.8ZM136.062 27.8V95H140.062V27.8H136.062ZM138.062 93H121.838V97H138.062V93ZM123.838 95V27.8H119.838V95H123.838ZM134.014 41.144V27.8H130.014V41.144H134.014ZM132.014 29.8H145.166V25.8H132.014V29.8ZM145.166 29.8C150.665 29.8 155.123 30.6668 158.624 32.3004L160.316 28.6756C156.136 26.7252 151.059 25.8 145.166 25.8V29.8ZM158.66 32.3169C162.237 33.8998 164.845 36.1403 166.593 39.0148L170.011 36.9372C167.79 33.2837 164.511 30.5322 160.279 28.6591L158.66 32.3169ZM166.593 39.0148C168.351 41.9067 169.278 45.4665 169.278 49.784H173.278C173.278 44.8855 172.221 40.5733 170.011 36.9372L166.593 39.0148ZM169.278 49.784C169.278 53.9606 168.356 57.4993 166.584 60.4719L170.02 62.5201C172.216 58.8367 173.278 54.5674 173.278 49.784H169.278ZM166.593 60.4572C164.841 63.3386 162.224 65.6153 158.635 67.2623L160.304 70.8977C164.524 68.9607 167.794 66.1814 170.011 62.5348L166.593 60.4572ZM158.649 67.2562C155.141 68.8347 150.673 69.672 145.166 69.672V73.672C151.05 73.672 156.118 72.7813 160.29 70.9038L158.649 67.2562ZM145.166 69.672H132.014V73.672H145.166V69.672ZM134.014 71.672V58.328H130.014V71.672H134.014ZM132.014 60.328H145.166V56.328H132.014V60.328ZM145.166 60.328C148.713 60.328 151.766 59.5287 154.089 57.687L151.603 54.553C150.213 55.6553 148.147 56.328 145.166 56.328V60.328ZM154.089 57.687C156.504 55.7716 157.63 53.0355 157.63 49.784H153.63C153.63 52.0365 152.9 53.5244 151.603 54.553L154.089 57.687ZM157.63 49.784C157.63 46.4861 156.515 43.7097 154.089 41.785L151.603 44.919C152.888 45.9383 153.63 47.4499 153.63 49.784H157.63ZM154.089 41.785C151.766 39.9433 148.713 39.144 145.166 39.144V43.144C148.147 43.144 150.213 43.8167 151.603 44.919L154.089 41.785ZM145.166 39.144H132.014V43.144H145.166V39.144ZM196.53 64.568V62.568H192.942L194.829 65.6198L196.53 64.568ZM213.33 64.568L214.976 63.4312L214.379 62.568H213.33V64.568ZM234.354 95V97H238.167L236 93.8632L234.354 95ZM215.346 95L213.645 96.0518L214.231 97H215.346V95ZM179.73 27.8V25.8H177.73V27.8H179.73ZM195.954 27.8H197.954V25.8H195.954V27.8ZM195.954 95V97H197.954V95H195.954ZM179.73 95H177.73V97H179.73V95ZM189.906 41.528H187.906V43.528H189.906V41.528ZM189.906 27.8V25.8H187.906V27.8H189.906ZM218.61 30.584L217.74 32.3847L217.74 32.3847L218.61 30.584ZM227.346 38.36L225.628 39.3841L225.633 39.3915L225.637 39.3988L227.346 38.36ZM227.346 61.208L229.055 62.2468L229.06 62.2395L229.064 62.2321L227.346 61.208ZM218.61 68.888L219.481 70.6887L219.481 70.6887L218.61 68.888ZM189.906 71.672H187.906V73.672H189.906V71.672ZM189.906 59.096V57.096H187.906V59.096H189.906ZM208.626 58.136L209.395 59.9822L209.414 59.9746L209.432 59.9666L208.626 58.136ZM212.274 55.16L213.951 56.25L213.963 56.2315L213.975 56.2127L212.274 55.16ZM212.274 45.656L210.574 46.7087L210.585 46.7275L210.597 46.746L212.274 45.656ZM208.626 42.584L207.793 44.4021L207.807 44.4085L207.821 44.4146L208.626 42.584ZM196.53 66.568H213.33V62.568H196.53V66.568ZM211.685 65.7048L232.709 96.1368L236 93.8632L214.976 63.4312L211.685 65.7048ZM234.354 93H215.346V97H234.354V93ZM217.047 93.9482L198.231 63.5162L194.829 65.6198L213.645 96.0518L217.047 93.9482ZM179.73 29.8H195.954V25.8H179.73V29.8ZM193.954 27.8V95H197.954V27.8H193.954ZM195.954 93H179.73V97H195.954V93ZM181.73 95V27.8H177.73V95H181.73ZM191.906 41.528V27.8H187.906V41.528H191.906ZM189.906 29.8H204.21V25.8H189.906V29.8ZM204.21 29.8C209.769 29.8 214.249 30.6975 217.74 32.3847L219.481 28.7833C215.291 26.7585 210.171 25.8 204.21 25.8V29.8ZM217.74 32.3847C221.264 34.0882 223.865 36.4259 225.628 39.3841L229.064 37.3359C226.86 33.6381 223.636 30.7918 219.481 28.7833L217.74 32.3847ZM225.637 39.3988C227.406 42.308 228.322 45.7462 228.322 49.784H232.322C232.322 45.1178 231.255 40.94 229.055 37.3212L225.637 39.3988ZM228.322 49.784C228.322 53.751 227.408 57.1979 225.628 60.1839L229.064 62.2321C231.252 58.5621 232.322 54.393 232.322 49.784H228.322ZM225.637 60.1692C223.876 63.0661 221.275 65.3789 217.74 67.0873L219.481 70.6887C223.626 68.6851 226.848 65.8779 229.055 62.2468L225.637 60.1692ZM217.74 67.0873C214.249 68.7745 209.769 69.672 204.21 69.672V73.672C210.171 73.672 215.291 72.7135 219.481 70.6887L217.74 67.0873ZM204.21 69.672H189.906V73.672H204.21V69.672ZM191.906 71.672V59.096H187.906V71.672H191.906ZM189.906 61.096H203.058V57.096H189.906V61.096ZM203.058 61.096C205.421 61.096 207.553 60.7497 209.395 59.9822L207.857 56.2898C206.627 56.8023 205.048 57.096 203.058 57.096V61.096ZM209.432 59.9666C211.335 59.1292 212.877 57.9019 213.951 56.25L210.597 54.07C210.007 54.9781 209.118 55.7348 207.821 56.3054L209.432 59.9666ZM213.975 56.2127C215.034 54.5009 215.522 52.5222 215.522 50.36H211.522C211.522 51.9098 211.178 53.1311 210.574 54.1073L213.975 56.2127ZM215.522 50.36C215.522 48.2012 215.036 46.2344 213.951 44.566L210.597 46.746C211.177 47.6375 211.522 48.8068 211.522 50.36H215.522ZM213.975 44.6033C212.908 42.8793 211.361 41.6022 209.432 40.7534L207.821 44.4146C209.092 44.9738 209.977 45.7447 210.574 46.7087L213.975 44.6033ZM209.46 40.7659C207.598 39.9128 205.442 39.528 203.058 39.528V43.528C205.026 43.528 206.582 43.8472 207.793 44.4021L209.46 40.7659ZM203.058 39.528H189.906V43.528H203.058V39.528ZM255.615 71.96L253.826 72.8544L253.837 72.877L253.849 72.8992L255.615 71.96ZM262.239 79.064L261.192 80.7686L261.201 80.7739L261.21 80.779L262.239 79.064ZM282.207 79.064L281.178 77.349L281.169 77.3541L281.16 77.3594L282.207 79.064ZM288.831 71.96L287.057 71.0361L287.053 71.0433L287.049 71.0504L288.831 71.96ZM288.927 50.936L287.138 51.8304L287.141 51.838L287.145 51.8456L288.927 50.936ZM282.399 43.736L283.445 42.0314L283.445 42.0314L282.399 43.736ZM262.239 43.736L261.21 42.021L261.201 42.0261L261.192 42.0314L262.239 43.736ZM255.615 50.936L253.841 50.0121L253.837 50.0193L253.833 50.0264L255.615 50.936ZM238.815 47.192L236.979 46.3976L236.974 46.4092L236.969 46.4208L238.815 47.192ZM258.015 28.856L258.72 30.7275L258.732 30.7231L258.743 30.7185L258.015 28.856ZM286.623 28.856L285.884 30.7148L285.901 30.7213L285.917 30.7275L286.623 28.856ZM305.727 47.192L307.572 46.4208L307.572 46.4208L305.727 47.192ZM305.727 75.704L303.877 74.9425L303.872 74.9542L303.868 74.9659L305.727 75.704ZM298.239 87.032L296.838 85.6039L296.831 85.6108L296.824 85.6178L298.239 87.032ZM286.815 94.52L287.543 96.3825L287.555 96.3779L287.567 96.3732L286.815 94.52ZM257.727 94.52L256.974 96.3732L256.986 96.3779L256.998 96.3825L257.727 94.52ZM246.207 87.032L244.792 88.4462L244.799 88.4532L244.806 88.4601L246.207 87.032ZM238.719 75.704L236.86 76.4421L236.864 76.4538L236.869 76.4655L238.719 75.704ZM251.311 61.4C251.311 65.6302 252.131 69.4645 253.826 72.8544L257.403 71.0656C256.026 68.3115 255.311 65.1058 255.311 61.4H251.311ZM253.849 72.8992C255.611 76.2117 258.063 78.8482 261.192 80.7686L263.285 77.3594C260.782 75.8238 258.818 73.7243 257.38 71.0208L253.849 72.8992ZM261.21 80.779C264.443 82.719 268.169 83.656 272.319 83.656V79.656C268.788 79.656 265.794 78.865 263.268 77.349L261.21 80.779ZM272.319 83.656C276.41 83.656 280.079 82.7161 283.253 80.7686L281.16 77.3594C278.702 78.8679 275.779 79.656 272.319 79.656V83.656ZM283.236 80.779C286.439 78.8571 288.906 76.2092 290.612 72.8696L287.049 71.0504C285.683 73.7268 283.734 75.8149 281.178 77.349L283.236 80.779ZM290.604 72.8839C292.373 69.4875 293.231 65.6425 293.231 61.4H289.231C289.231 65.0935 288.488 68.2885 287.057 71.0361L290.604 72.8839ZM293.231 61.4C293.231 57.1709 292.411 53.3614 290.708 50.0264L287.145 51.8456C288.514 54.5266 289.231 57.6931 289.231 61.4H293.231ZM290.715 50.0416C289.019 46.6493 286.592 43.9627 283.445 42.0314L281.352 45.4406C283.837 46.9653 285.762 49.0787 287.138 51.8304L290.715 50.0416ZM283.445 42.0314C280.261 40.0776 276.524 39.144 272.319 39.144V43.144C275.921 43.144 278.904 43.9384 281.352 45.4406L283.445 42.0314ZM272.319 39.144C268.169 39.144 264.443 40.081 261.21 42.021L263.268 45.451C265.794 43.935 268.788 43.144 272.319 43.144V39.144ZM261.192 42.0314C258.052 43.9582 255.6 46.635 253.841 50.0121L257.388 51.8599C258.829 49.093 260.793 46.9698 263.285 45.4406L261.192 42.0314ZM253.833 50.0264C252.13 53.3614 251.311 57.1709 251.311 61.4H255.311C255.311 57.6931 256.027 54.5266 257.396 51.8456L253.833 50.0264ZM238.127 61.4C238.127 56.4502 238.981 51.9802 240.66 47.9632L236.969 46.4208C235.064 50.9798 234.127 55.9818 234.127 61.4H238.127ZM240.65 47.9864C242.404 43.934 244.814 40.4443 247.88 37.4982L245.109 34.6138C241.647 37.9397 238.937 41.874 236.979 46.3976L240.65 47.9864ZM247.88 37.4982C250.94 34.5579 254.546 32.3001 258.72 30.7275L257.309 26.9845C252.651 28.7398 248.577 31.2821 245.109 34.6138L247.88 37.4982ZM258.743 30.7185C262.909 29.0884 267.428 28.264 272.319 28.264V24.264C266.969 24.264 261.952 25.1676 257.286 26.9935L258.743 30.7185ZM272.319 28.264C277.277 28.264 281.791 29.0896 285.884 30.7148L287.361 26.9972C282.75 25.1664 277.728 24.264 272.319 24.264V28.264ZM285.917 30.7275C290.091 32.3001 293.697 34.5579 296.757 37.4982L299.528 34.6138C296.06 31.2821 291.986 28.7398 287.328 26.9845L285.917 30.7275ZM296.757 37.4982C299.818 40.4392 302.192 43.9211 303.881 47.9632L307.572 46.4208C305.677 41.8869 302.995 37.9448 299.528 34.6138L296.757 37.4982ZM303.881 47.9632C305.56 51.9802 306.415 56.4502 306.415 61.4H310.415C310.415 55.9818 309.477 50.9798 307.572 46.4208L303.881 47.9632ZM306.415 61.4C306.415 66.3493 305.56 70.8555 303.877 74.9425L307.576 76.4655C309.477 71.8485 310.415 66.8186 310.415 61.4H306.415ZM303.868 74.9659C302.24 79.0649 299.898 82.6042 296.838 85.6039L299.639 88.4601C303.107 85.0598 305.757 81.0471 307.585 76.4421L303.868 74.9659ZM296.824 85.6178C293.823 88.6187 290.244 90.9699 286.062 92.6668L287.567 96.3732C292.217 94.4861 296.254 91.8453 299.653 88.4462L296.824 85.6178ZM286.086 92.6575C281.925 94.2854 277.344 95.112 272.319 95.112V99.112C277.789 99.112 282.872 98.2106 287.543 96.3825L286.086 92.6575ZM272.319 95.112C267.226 95.112 262.613 94.2844 258.455 92.6575L256.998 96.3825C261.672 98.2116 266.787 99.112 272.319 99.112V95.112ZM258.479 92.6668C254.294 90.9686 250.676 88.6135 247.607 85.6039L244.806 88.4601C248.265 91.8505 252.327 94.4874 256.974 96.3732L258.479 92.6668ZM247.621 85.6178C244.615 82.612 242.263 79.0603 240.568 74.9425L236.869 76.4655C238.758 81.0517 241.398 85.052 244.792 88.4462L247.621 85.6178ZM240.577 74.9659C238.952 70.8727 238.127 66.3583 238.127 61.4H234.127C234.127 66.8097 235.029 71.8313 236.86 76.4421L240.577 74.9659ZM342.112 67.928L340.261 68.6853L342.112 73.2102L343.963 68.6853L342.112 67.928ZM358.528 27.8V25.8H357.185L356.677 27.0427L358.528 27.8ZM377.536 27.8L379.328 28.6886L380.76 25.8H377.536V27.8ZM342.112 99.224L340.319 100.111L342.11 103.73L343.904 100.113L342.112 99.224ZM306.784 27.8V25.8H303.563L304.991 28.6867L306.784 27.8ZM325.696 27.8L327.547 27.0427L327.039 25.8H325.696V27.8ZM343.963 68.6853L360.379 28.5573L356.677 27.0427L340.261 67.1707L343.963 68.6853ZM358.528 29.8H377.536V25.8H358.528V29.8ZM375.744 26.9114L340.32 98.3354L343.904 100.113L379.328 28.6886L375.744 26.9114ZM343.905 98.3373L308.577 26.9133L304.991 28.6867L340.319 100.111L343.905 98.3373ZM306.784 29.8H325.696V25.8H306.784V29.8ZM323.845 28.5573L340.261 68.6853L343.963 67.1707L327.547 27.0427L323.845 28.5573ZM409.519 27.8V25.8H407.519V27.8H409.519ZM426.031 27.8H428.031V25.8H426.031V27.8ZM426.031 95V97H428.031V95H426.031ZM409.519 95H407.519V97H409.519V95ZM409.519 29.8H426.031V25.8H409.519V29.8ZM424.031 27.8V95H428.031V27.8H424.031ZM426.031 93H409.519V97H426.031V93ZM411.519 95V27.8H407.519V95H411.519ZM445.741 71.384L447.492 70.4166L446.401 68.4436L444.572 69.7612L445.741 71.384ZM450.253 77.72L448.787 79.0809L448.8 79.0947L448.813 79.1083L450.253 77.72ZM455.821 81.848L454.95 83.6483L454.961 83.6537L454.972 83.6589L455.821 81.848ZM468.109 81.56L469.309 83.16L469.33 83.1443L469.35 83.1281L468.109 81.56ZM469.069 72.536L467.525 73.8074L467.544 73.8305L467.564 73.853L469.069 72.536ZM464.749 69.464L463.878 71.2643L463.878 71.2643L464.749 69.464ZM456.877 66.2L457.575 64.3258L457.565 64.322L457.554 64.3182L456.877 66.2ZM451.309 63.8L450.415 65.5889L450.426 65.5943L450.436 65.5996L451.309 63.8ZM445.453 59.864L444.118 61.3531L444.132 61.3661L444.147 61.3788L445.453 59.864ZM440.845 53.912L439.066 54.8256L439.071 54.8356L439.076 54.8455L440.845 53.912ZM442.093 35.096L440.48 33.9133L440.472 33.925L440.463 33.937L442.093 35.096ZM450.541 28.568L451.313 30.4132L451.321 30.4098L451.329 30.4063L450.541 28.568ZM474.061 28.472L473.239 30.2952L473.245 30.2981L473.252 30.3011L474.061 28.472ZM482.317 34.04L480.882 35.4336L480.882 35.4336L482.317 34.04ZM487.309 40.856L488.284 42.6024L489.953 41.671L489.098 39.9616L487.309 40.856ZM474.925 47.768L473.21 48.797L474.207 50.459L475.9 49.5144L474.925 47.768ZM471.565 43.64L470.151 45.0542L470.188 45.0914L470.227 45.1266L471.565 43.64ZM467.437 40.856L466.574 42.6603L466.62 42.6824L466.668 42.7022L467.437 40.856ZM457.357 41.336L458.596 42.9058L458.621 42.8862L458.645 42.8658L457.357 41.336ZM457.261 49.016L455.847 50.4302L455.866 50.4493L455.886 50.4679L457.261 49.016ZM462.349 52.184L461.542 54.0138L461.551 54.0181L461.561 54.0223L462.349 52.184ZM470.413 55.256L471.121 53.3854L471.095 53.3756L471.069 53.3665L470.413 55.256ZM477.037 58.424L476.016 60.1437L476.036 60.1557L476.057 60.1671L477.037 58.424ZM482.413 62.648L480.943 64.0046L480.957 64.0195L480.971 64.0342L482.413 62.648ZM486.157 68.408L484.308 69.1695L484.308 69.1695L486.157 68.408ZM485.389 85.016L483.617 84.088L483.613 84.0961L483.609 84.1042L485.389 85.016ZM479.821 91.64L478.614 90.0452L478.604 90.0532L478.593 90.0613L479.821 91.64ZM471.853 95.672L471.282 93.7552L471.257 93.7626L471.233 93.7705L471.853 95.672ZM450.541 94.808L449.749 96.6446L449.768 96.6528L449.787 96.6606L450.541 94.808ZM440.845 88.376L439.448 89.8068L439.448 89.8068L440.845 88.376ZM434.413 79.544L433.244 77.9212L431.885 78.8999L432.61 80.4095L434.413 79.544ZM443.991 72.3514C445.403 74.9067 446.999 77.1549 448.787 79.0809L451.719 76.3591C450.179 74.7011 448.767 72.7253 447.492 70.4166L443.991 72.3514ZM448.813 79.1083C450.684 81.0483 452.728 82.5732 454.95 83.6483L456.692 80.0477C454.946 79.2028 453.278 77.9757 451.693 76.3317L448.813 79.1083ZM454.972 83.6589C457.283 84.7422 459.717 85.288 462.253 85.288V81.288C460.309 81.288 458.455 80.8738 456.67 80.0371L454.972 83.6589ZM462.253 85.288C464.951 85.288 467.353 84.6273 469.309 83.16L466.909 79.96C465.793 80.7967 464.291 81.288 462.253 81.288V85.288ZM469.35 83.1281C471.39 81.5132 472.413 79.291 472.413 76.664H468.413C468.413 78.133 467.9 79.1748 466.868 79.9919L469.35 83.1281ZM472.413 76.664C472.413 74.5863 471.868 72.6976 470.574 71.219L467.564 73.853C468.062 74.4224 468.413 75.2857 468.413 76.664H472.413ZM470.613 71.2646C469.459 69.8636 467.733 68.6859 465.62 67.6637L463.878 71.2643C465.733 72.1621 466.887 73.0324 467.525 73.8074L470.613 71.2646ZM465.62 67.6637C463.557 66.6654 460.869 65.5528 457.575 64.3258L456.179 68.0742C459.413 69.2792 461.973 70.3426 463.878 71.2643L465.62 67.6637ZM457.554 64.3182C456.04 63.7732 454.252 63.0042 452.182 62.0004L450.436 65.5996C452.59 66.6438 454.514 67.4748 456.2 68.0818L457.554 64.3182ZM452.203 62.0111C450.313 61.0661 448.498 59.8487 446.759 58.3492L444.147 61.3788C446.12 63.0793 448.209 64.4859 450.415 65.5889L452.203 62.0111ZM446.788 58.3749C445.116 56.876 443.724 55.0826 442.614 52.9785L439.076 54.8455C440.398 57.3494 442.078 59.524 444.118 61.3531L446.788 58.3749ZM442.624 52.9984C441.585 50.975 441.021 48.4561 441.021 45.368H437.021C437.021 48.9359 437.673 52.113 439.066 54.8256L442.624 52.9984ZM441.021 45.368C441.021 41.7622 441.945 38.7556 443.723 36.255L440.463 33.937C438.145 37.1964 437.021 41.0378 437.021 45.368H441.021ZM443.706 36.2787C445.588 33.712 448.104 31.7549 451.313 30.4132L449.769 26.7228C445.938 28.3251 442.822 30.72 440.48 33.9133L443.706 36.2787ZM451.329 30.4063C454.637 28.9887 458.332 28.264 462.445 28.264V24.264C457.854 24.264 453.614 25.0753 449.753 26.7297L451.329 30.4063ZM462.445 28.264C466.711 28.264 470.29 28.9651 473.239 30.2952L474.883 26.6488C471.304 25.0349 467.139 24.264 462.445 24.264V28.264ZM473.252 30.3011C476.384 31.6862 478.912 33.4053 480.882 35.4336L483.752 32.6464C481.37 30.1947 478.394 28.2018 474.87 26.6429L473.252 30.3011ZM480.882 35.4336C482.945 37.5565 484.477 39.6641 485.52 41.7504L489.098 39.9616C487.837 37.4399 486.041 35.0035 483.752 32.6464L480.882 35.4336ZM486.334 39.1096L473.95 46.0216L475.9 49.5144L488.284 42.6024L486.334 39.1096ZM476.64 46.739C475.586 44.9828 474.342 43.449 472.903 42.1534L470.227 45.1266C471.348 46.135 472.344 47.3532 473.21 48.797L476.64 46.739ZM472.979 42.2258C471.585 40.8314 469.991 39.7537 468.206 39.0098L466.668 42.7022C467.955 43.2383 469.113 44.0166 470.151 45.0542L472.979 42.2258ZM468.3 39.0517C466.543 38.2113 464.646 37.8 462.637 37.8V41.8C464.084 41.8 465.387 42.0927 466.574 42.6603L468.3 39.0517ZM462.637 37.8C460.069 37.8 457.777 38.3676 456.069 39.8062L458.645 42.8658C459.369 42.2564 460.597 41.8 462.637 41.8V37.8ZM456.118 39.7662C454.451 41.0825 453.533 42.8636 453.533 44.984H457.533C457.533 44.1603 457.832 43.5095 458.596 42.9058L456.118 39.7662ZM453.533 44.984C453.533 47.0851 454.345 48.9284 455.847 50.4302L458.675 47.6018C457.873 46.7996 457.533 45.9549 457.533 44.984H453.533ZM455.886 50.4679C457.322 51.8285 459.237 52.997 461.542 54.0138L463.156 50.3542C461.109 49.451 459.632 48.5075 458.637 47.5641L455.886 50.4679ZM461.561 54.0223C463.857 55.0062 466.592 56.0471 469.757 57.1455L471.069 53.3665C467.962 52.2889 465.321 51.2818 463.137 50.3457L461.561 54.0223ZM469.705 57.1266C471.971 57.984 474.074 58.9906 476.016 60.1437L478.058 56.7043C475.904 55.4254 473.591 54.32 471.121 53.3854L469.705 57.1266ZM476.057 60.1671C477.929 61.2205 479.555 62.4999 480.943 64.0046L483.883 61.2914C482.2 59.4681 480.241 57.9315 478.018 56.6808L476.057 60.1671ZM480.971 64.0342C482.394 65.5138 483.505 67.2209 484.308 69.1695L488.006 67.6465C487.017 65.2431 485.632 63.1102 483.855 61.2618L480.971 64.0342ZM484.308 69.1695C485.087 71.0614 485.501 73.2909 485.501 75.896H489.501C489.501 72.869 489.019 70.1066 488.006 67.6465L484.308 69.1695ZM485.501 75.896C485.501 79.0034 484.858 81.7187 483.617 84.088L487.161 85.944C488.736 82.9373 489.501 79.5726 489.501 75.896H485.501ZM483.609 84.1042C482.403 86.4583 480.744 88.4335 478.614 90.0452L481.028 93.2348C483.634 91.2625 485.687 88.8217 487.169 85.9278L483.609 84.1042ZM478.593 90.0613C476.5 91.6896 474.07 92.9248 471.282 93.7552L472.424 97.5888C475.652 96.6272 478.534 95.1744 481.049 93.2187L478.593 90.0613ZM471.233 93.7705C468.492 94.6644 465.661 95.112 462.733 95.112V99.112C466.077 99.112 469.326 98.5996 472.473 97.5735L471.233 93.7705ZM462.733 95.112C458.622 95.112 454.815 94.3876 451.295 92.9554L449.787 96.6606C453.819 98.3004 458.14 99.112 462.733 99.112V95.112ZM451.333 92.9714C447.834 91.4634 444.81 89.4534 442.243 86.9452L439.448 89.8068C442.384 92.6746 445.824 94.9526 449.749 96.6446L451.333 92.9714ZM442.243 86.9452C439.644 84.4068 437.643 81.6509 436.216 78.6785L432.61 80.4095C434.255 83.8371 436.542 86.9692 439.448 89.8068L442.243 86.9452ZM435.582 81.1668L446.91 73.0068L444.572 69.7612L433.244 77.9212L435.582 81.1668ZM523.29 27.8V25.8H521.29V27.8H523.29ZM539.994 27.8H541.994V25.8H539.994V27.8ZM539.994 95V97H541.994V95H539.994ZM523.29 95H521.29V97H523.29V95ZM534.042 95H532.042V97H534.042V95ZM534.042 80.6V78.6H532.042V80.6H534.042ZM554.106 79.64L553.597 77.7058L553.584 77.7093L554.106 79.64ZM560.442 76.472L559.199 74.905L559.186 74.9157L559.173 74.9265L560.442 76.472ZM564.858 70.616L566.684 71.4327L566.688 71.424L566.692 71.4152L564.858 70.616ZM564.858 52.28L563.025 53.0792L563.029 53.088L563.033 53.0967L564.858 52.28ZM560.442 46.328L559.173 47.8734L559.186 47.8843L559.199 47.895L560.442 46.328ZM554.106 43.16L553.584 45.0908L553.597 45.0941L554.106 43.16ZM534.042 42.2H532.042V44.2H534.042V42.2ZM534.042 27.8V25.8H532.042V27.8H534.042ZM566.394 31.928L565.483 33.7083L565.483 33.7083L566.394 31.928ZM578.874 43.544L577.152 44.56L577.152 44.56L578.874 43.544ZM578.874 79.256L580.597 80.272L580.603 80.2624L578.874 79.256ZM566.394 90.872L565.483 89.0917L565.483 89.0917L566.394 90.872ZM523.29 29.8H539.994V25.8H523.29V29.8ZM537.994 27.8V95H541.994V27.8H537.994ZM539.994 93H523.29V97H539.994V93ZM525.29 95V27.8H521.29V95H525.29ZM547.29 93H534.042V97H547.29V93ZM536.042 95V80.6H532.042V95H536.042ZM534.042 82.6H546.714V78.6H534.042V82.6ZM546.714 82.6C549.443 82.6 552.083 82.2587 554.628 81.5707L553.584 77.7093C551.394 78.3013 549.106 78.6 546.714 78.6V82.6ZM554.615 81.5741C557.302 80.8671 559.679 79.6873 561.712 78.0175L559.173 74.9265C557.622 76.2007 555.775 77.1329 553.597 77.7058L554.615 81.5741ZM561.685 78.039C563.823 76.3436 565.481 74.121 566.684 71.4327L563.033 69.7993C562.059 71.975 560.774 73.6564 559.199 74.905L561.685 78.039ZM566.692 71.4152C567.92 68.597 568.49 65.2346 568.49 61.4H564.49C564.49 64.8614 563.972 67.643 563.025 69.8168L566.692 71.4152ZM568.49 61.4C568.49 57.5683 567.921 54.2285 566.684 51.4633L563.033 53.0967C563.972 55.1955 564.49 57.9357 564.49 61.4H568.49ZM566.692 51.4808C565.492 48.7296 563.834 46.4653 561.685 44.761L559.199 47.895C560.763 49.1347 562.048 50.8384 563.025 53.0792L566.692 51.4808ZM561.712 44.7825C559.679 43.1127 557.302 41.9329 554.615 41.2258L553.597 45.0941C555.775 45.6671 557.622 46.5993 559.173 47.8734L561.712 44.7825ZM554.628 41.2293C552.083 40.5413 549.443 40.2 546.714 40.2V44.2C549.106 44.2 551.394 44.4987 553.584 45.0907L554.628 41.2293ZM546.714 40.2H534.042V44.2H546.714V40.2ZM536.042 42.2V27.8H532.042V42.2H536.042ZM534.042 29.8H547.29V25.8H534.042V29.8ZM547.29 29.8C554.402 29.8 560.444 31.1289 565.483 33.7083L567.306 30.1477C561.592 27.2231 554.899 25.8 547.29 25.8V29.8ZM565.483 33.7083C570.536 36.2952 574.408 39.9087 577.152 44.56L580.597 42.528C577.452 37.1953 573.004 33.0648 567.306 30.1477L565.483 33.7083ZM577.152 44.56C579.882 49.1896 581.29 54.7762 581.29 61.4H585.29C585.29 54.1998 583.755 47.8824 580.597 42.528L577.152 44.56ZM581.29 61.4C581.29 67.9553 579.884 73.5478 577.146 78.2496L580.603 80.2624C583.753 74.8522 585.29 68.5407 585.29 61.4H581.29ZM577.152 78.24C574.408 82.8913 570.536 86.5048 565.483 89.0917L567.306 92.6523C573.004 89.7352 577.452 85.6047 580.597 80.272L577.152 78.24ZM565.483 89.0917C560.444 91.6711 554.402 93 547.29 93V97C554.899 97 561.592 95.5769 567.306 92.6523L565.483 89.0917ZM602.528 95H600.528V97H602.528V95ZM602.528 81.656V79.656H600.528V81.656H602.528ZM636.416 81.656H638.416V79.656H636.416V81.656ZM636.416 95V97H638.416V95H636.416ZM602.528 41.144H600.528V43.144H602.528V41.144ZM602.528 27.8V25.8H600.528V27.8H602.528ZM636.416 27.8H638.416V25.8H636.416V27.8ZM636.416 41.144V43.144H638.416V41.144H636.416ZM602.528 66.2H600.528V68.2H602.528V66.2ZM602.528 53.144V51.144H600.528V53.144H602.528ZM634.496 53.144H636.496V51.144H634.496V53.144ZM634.496 66.2V68.2H636.496V66.2H634.496ZM591.776 27.8V25.8H589.776V27.8H591.776ZM607.328 27.8H609.328V25.8H607.328V27.8ZM607.328 95V97H609.328V95H607.328ZM591.776 95H589.776V97H591.776V95ZM604.528 95V81.656H600.528V95H604.528ZM602.528 83.656H636.416V79.656H602.528V83.656ZM634.416 81.656V95H638.416V81.656H634.416ZM636.416 93H602.528V97H636.416V93ZM604.528 41.144V27.8H600.528V41.144H604.528ZM602.528 29.8H636.416V25.8H602.528V29.8ZM634.416 27.8V41.144H638.416V27.8H634.416ZM636.416 39.144H602.528V43.144H636.416V39.144ZM604.528 66.2V53.144H600.528V66.2H604.528ZM602.528 55.144H634.496V51.144H602.528V55.144ZM632.496 53.144V66.2H636.496V53.144H632.496ZM634.496 64.2H602.528V68.2H634.496V64.2ZM591.776 29.8H607.328V25.8H591.776V29.8ZM605.328 27.8V95H609.328V27.8H605.328ZM607.328 93H591.776V97H607.328V93ZM593.776 95V27.8H589.776V95H593.776ZM658.26 82.04L656.269 81.8548L656.066 84.04H658.26V82.04ZM659.412 69.656V67.656H657.59L657.421 69.4708L659.412 69.656ZM692.724 69.656L694.717 69.4861L694.561 67.656H692.724V69.656ZM693.78 82.04V84.04H695.958L695.773 81.8701L693.78 82.04ZM675.828 52.472L677.662 51.6725L675.823 47.4569L673.993 51.6763L675.828 52.472ZM666.42 74.168L664.585 73.3723L664.33 73.9622L664.465 74.5907L666.42 74.168ZM667.188 77.72L668.989 78.5903L669.289 77.9704L669.143 77.2973L667.188 77.72ZM658.836 95V97H660.091L660.637 95.8703L658.836 95ZM640.5 95L638.708 94.1133L637.28 97H640.5V95ZM675.828 23.576L677.62 22.6874L675.826 19.0698L674.036 22.6893L675.828 23.576ZM711.252 95V97H714.477L713.044 94.1114L711.252 95ZM692.82 95L691.021 95.8736L691.568 97H692.82V95ZM684.756 78.392L682.776 78.1156L682.691 78.7182L682.957 79.2656L684.756 78.392ZM685.332 74.264L687.313 74.5404L687.391 73.9816L687.166 73.4645L685.332 74.264ZM660.252 82.2252L661.404 69.8412L657.421 69.4708L656.269 81.8548L660.252 82.2252ZM659.412 71.656H692.724V67.656H659.412V71.656ZM690.732 69.8259L691.788 82.2099L695.773 81.8701L694.717 69.4861L690.732 69.8259ZM693.78 80.04H658.26V84.04H693.78V80.04ZM673.993 51.6763L664.585 73.3723L668.255 74.9637L677.663 53.2677L673.993 51.6763ZM664.465 74.5907L665.233 78.1427L669.143 77.2973L668.375 73.7453L664.465 74.5907ZM665.388 76.8497L657.036 94.1297L660.637 95.8703L668.989 78.5903L665.388 76.8497ZM658.836 93H640.5V97H658.836V93ZM642.293 95.8867L677.621 24.4627L674.036 22.6893L638.708 94.1133L642.293 95.8867ZM674.037 24.4646L709.461 95.8886L713.044 94.1114L677.62 22.6874L674.037 24.4646ZM711.252 93H692.82V97H711.252V93ZM694.619 94.1264L686.555 77.5184L682.957 79.2656L691.021 95.8736L694.619 94.1264ZM686.737 78.6684L687.313 74.5404L683.352 73.9876L682.776 78.1156L686.737 78.6684ZM687.166 73.4645L677.662 51.6725L673.995 53.2715L683.499 75.0635L687.166 73.4645ZM716.374 27.8V25.8H714.374V27.8H716.374ZM733.078 27.8H735.078V25.8H733.078V27.8ZM733.078 95V97H735.078V95H733.078ZM716.374 95H714.374V97H716.374V95ZM727.126 95H725.126V97H727.126V95ZM727.126 80.6V78.6H725.126V80.6H727.126ZM747.19 79.64L746.681 77.7058L746.668 77.7093L747.19 79.64ZM753.526 76.472L752.283 74.905L752.27 74.9157L752.257 74.9265L753.526 76.472ZM757.942 70.616L759.768 71.4327L759.772 71.424L759.775 71.4152L757.942 70.616ZM757.942 52.28L756.109 53.0792L756.112 53.088L756.116 53.0967L757.942 52.28ZM753.526 46.328L752.257 47.8734L752.27 47.8843L752.283 47.895L753.526 46.328ZM747.19 43.16L746.668 45.0908L746.681 45.0941L747.19 43.16ZM727.126 42.2H725.126V44.2H727.126V42.2ZM727.126 27.8V25.8H725.126V27.8H727.126ZM759.478 31.928L758.567 33.7083L758.567 33.7083L759.478 31.928ZM771.958 43.544L770.235 44.56L770.235 44.56L771.958 43.544ZM771.958 79.256L773.681 80.272L773.686 80.2624L771.958 79.256ZM759.478 90.872L758.567 89.0917L758.567 89.0917L759.478 90.872ZM716.374 29.8H733.078V25.8H716.374V29.8ZM731.078 27.8V95H735.078V27.8H731.078ZM733.078 93H716.374V97H733.078V93ZM718.374 95V27.8H714.374V95H718.374ZM740.374 93H727.126V97H740.374V93ZM729.126 95V80.6H725.126V95H729.126ZM727.126 82.6H739.798V78.6H727.126V82.6ZM739.798 82.6C742.527 82.6 745.166 82.2587 747.712 81.5707L746.668 77.7093C744.478 78.3013 742.189 78.6 739.798 78.6V82.6ZM747.699 81.5741C750.386 80.8671 752.763 79.6873 754.796 78.0175L752.257 74.9265C750.705 76.2007 748.858 77.1329 746.681 77.7058L747.699 81.5741ZM754.769 78.039C756.906 76.3436 758.565 74.121 759.768 71.4327L756.116 69.7993C755.143 71.975 753.858 73.6564 752.283 74.905L754.769 78.039ZM759.775 71.4152C761.004 68.597 761.574 65.2346 761.574 61.4H757.574C757.574 64.8614 757.056 67.643 756.109 69.8168L759.775 71.4152ZM761.574 61.4C761.574 57.5683 761.005 54.2285 759.768 51.4633L756.116 53.0967C757.055 55.1955 757.574 57.9357 757.574 61.4H761.574ZM759.775 51.4808C758.576 48.7296 756.918 46.4653 754.769 44.761L752.283 47.895C753.846 49.1347 755.132 50.8384 756.109 53.0792L759.775 51.4808ZM754.796 44.7825C752.763 43.1127 750.386 41.9329 747.699 41.2258L746.681 45.0941C748.858 45.6671 750.705 46.5993 752.257 47.8734L754.796 44.7825ZM747.712 41.2293C745.166 40.5413 742.527 40.2 739.798 40.2V44.2C742.189 44.2 744.478 44.4987 746.668 45.0907L747.712 41.2293ZM739.798 40.2H727.126V44.2H739.798V40.2ZM729.126 42.2V27.8H725.126V42.2H729.126ZM727.126 29.8H740.374V25.8H727.126V29.8ZM740.374 29.8C747.485 29.8 753.528 31.1289 758.567 33.7083L760.389 30.1477C754.676 27.2231 747.983 25.8 740.374 25.8V29.8ZM758.567 33.7083C763.62 36.2952 767.492 39.9087 770.235 44.56L773.681 42.528C770.536 37.1953 766.088 33.0648 760.389 30.1477L758.567 33.7083ZM770.235 44.56C772.966 49.1896 774.374 54.7762 774.374 61.4H778.374C778.374 54.1998 776.838 47.8824 773.681 42.528L770.235 44.56ZM774.374 61.4C774.374 67.9553 772.967 73.5478 770.23 78.2496L773.686 80.2624C776.837 74.8522 778.374 68.5407 778.374 61.4H774.374ZM770.235 78.24C767.492 82.8913 763.62 86.5048 758.567 89.0917L760.389 92.6523C766.088 89.7352 770.536 85.6047 773.681 80.272L770.235 78.24ZM758.567 89.0917C753.528 91.6711 747.485 93 740.374 93V97C747.983 97 754.676 95.5769 760.389 92.6523L758.567 89.0917Z" fill="white" mask="url(#path-2-outside-1_551_31)"/>
</svg>
