<svg xmlns="http://www.w3.org/2000/svg" width="133" height="134" viewBox="0 0 133 134" fill="none">
  <path fill-rule="evenodd" clip-rule="evenodd" d="M66.7326 133.046C30.0139 133.046 0.474365 103.506 0.474365 66.7877C0.474365 30.069 30.0139 0.52948 66.7326 0.52948C103.451 0.52948 132.991 30.069 132.991 66.7877C132.991 103.506 103.451 133.046 66.7326 133.046ZM66.7326 106.819L71.7019 101.85L66.7326 82.8006L61.7632 101.85L66.7326 106.819ZM60.3834 106.543L57.8987 115.93L63.6963 110.132L60.3834 106.543ZM73.0817 106.543L69.7688 109.855L75.5664 115.653L73.0817 106.543ZM77.7761 123.659L66.7326 112.617L55.689 123.659C59.2785 124.212 62.868 124.764 66.7326 124.764C70.5971 124.764 74.1866 124.487 77.7761 123.659ZM66.7326 8.81175C34.7083 8.81175 8.75664 34.7634 8.75664 66.7877C8.75664 92.1861 25.0446 113.72 47.6833 121.451L60.1067 75.3466C57.3454 73.4135 55.689 70.1006 55.689 66.511C55.689 60.4385 60.6583 55.4691 66.7326 55.4691C72.8068 55.4691 77.7761 60.4385 77.7761 66.511C77.7761 70.1006 76.1197 73.1369 73.3584 75.3466L85.7818 121.451C108.421 113.72 124.708 92.1861 124.708 66.7877C124.708 34.7634 98.7568 8.81175 66.7326 8.81175ZM104.554 95.499C103.175 97.1554 100.69 97.7087 98.7568 96.3272C96.8254 94.9474 96.5487 92.4627 97.9286 90.8063C97.9286 90.8063 105.383 80.8675 105.383 66.7877C105.383 52.7078 97.9286 42.7691 97.9286 42.7691C96.5487 41.1126 96.8254 38.6279 98.7568 37.2481C100.69 35.8666 103.175 36.4199 104.554 38.0763C105.108 38.6279 113.665 49.9465 113.665 66.7877C113.665 83.6288 105.108 94.9474 104.554 95.499ZM84.4019 84.732C82.7455 83.0756 83.0205 80.0393 84.6769 78.3829C84.6769 78.3829 88.8181 73.9651 88.8181 66.7877C88.8181 59.6102 84.6769 55.4691 84.6769 55.1925C83.0205 53.536 83.0205 50.7747 84.4019 48.8433C86.0584 46.9102 88.5431 46.9102 90.1995 48.5667C90.4745 48.8433 97.1003 55.7441 97.1003 66.7877C97.1003 77.8312 90.4745 84.732 90.1995 85.0087C88.5431 86.6651 86.0584 86.3885 84.4019 84.732ZM49.0631 84.732C47.4067 86.3885 44.922 86.6651 43.2656 85.0087C42.9906 84.4571 36.3648 77.8312 36.3648 66.7877C36.3648 55.7441 42.9906 49.1183 43.2656 48.5667C44.922 46.9102 47.6833 46.9102 49.0631 48.8433C50.7196 50.4997 50.4446 53.536 48.7882 55.1925C48.7882 55.4691 44.647 59.6102 44.647 66.7877C44.647 73.9651 48.7882 78.3829 48.7882 78.3829C50.4446 80.0393 50.7196 82.8006 49.0631 84.732ZM34.7083 96.3272C32.7752 97.7087 30.2906 97.1554 28.9107 95.499C28.3575 94.9474 19.8002 83.6288 19.8002 66.7877C19.8002 49.9465 28.3575 38.6279 28.9107 38.0763C30.2906 36.4199 32.7752 35.8666 34.7083 37.2481C36.6397 38.6279 36.9164 41.1126 35.5365 42.7691C35.5365 42.7691 28.0825 52.7078 28.0825 66.7877C28.0825 80.8675 35.5365 90.8063 35.5365 90.8063C36.9164 92.4627 36.3648 94.9474 34.7083 96.3272Z" fill="#fff"/>
</svg>