<svg xmlns="http://www.w3.org/2000/svg" width="27" height="27" viewBox="0 0 27 27" fill="none">
  <path d="M13.4587 0C6.02582 0 0 6.02566 0 13.4585C0 20.8917 6.02582 26.9169 13.4587 26.9169C20.8924 26.9169 26.9176 20.8917 26.9176 13.4585C26.9176 6.02614 20.8924 0.000642854 13.4585 0.000642854L13.4587 0ZM19.6308 19.4111C19.3897 19.8064 18.8722 19.9318 18.4768 19.6891C15.3169 17.7589 11.3389 17.3218 6.65405 18.3921C6.20261 18.495 5.75261 18.2121 5.64975 17.7605C5.54641 17.3089 5.82814 16.8589 6.28071 16.7561C11.4075 15.5843 15.8051 16.0891 19.3527 18.2571C19.7481 18.4998 19.8734 19.0157 19.6308 19.4111ZM21.2781 15.746C20.9743 16.2402 20.3283 16.3961 19.8349 16.0923C16.2172 13.8682 10.7026 13.2242 6.42359 14.5231C5.86864 14.6907 5.28252 14.378 5.11409 13.824C4.94695 13.2691 5.25986 12.6841 5.81384 12.5153C10.7016 11.0322 16.7781 11.7506 20.9326 14.3036C21.4259 14.6073 21.5818 15.2532 21.2781 15.746ZM21.4195 11.93C17.0818 9.35357 9.92523 9.11668 5.78379 10.3736C5.11875 10.5753 4.41546 10.1999 4.21393 9.53486C4.01239 8.8695 4.3875 8.1667 5.05302 7.96452C9.80711 6.5213 17.7102 6.80014 22.7043 9.76484C23.3037 10.1199 23.4998 10.8924 23.1446 11.4898C22.7911 12.088 22.0164 12.2852 21.4202 11.93H21.4195Z" fill="white"/>
</svg>