<svg xmlns="http://www.w3.org/2000/svg" width="22" height="23" viewBox="0 0 22 23" fill="none">
<g clip-path="url(#clip0_528_237)">
<path d="M15.6499 0.55127H11.9422V15.5368C11.9422 17.3223 10.5162 18.789 8.74161 18.789C6.96701 18.789 5.54101 17.3223 5.54101 15.5368C5.54101 13.7832 6.93533 12.3483 8.64656 12.2846V8.5223C4.87553 8.58604 1.83337 11.6788 1.83337 15.5368C1.83337 19.4267 4.93891 22.5513 8.77332 22.5513C12.6077 22.5513 15.7132 19.3948 15.7132 15.5368V7.8527C17.1075 8.87301 18.8187 9.47881 20.625 9.51071V5.74837C17.8364 5.65272 15.6499 3.35706 15.6499 0.55127Z" fill="white"/>
</g>
<defs>
<clipPath id="clip0_528_237">
<rect width="22" height="22" fill="white" transform="translate(0 0.55127)"/>
</clipPath>
</defs>
</svg>