<svg xmlns="http://www.w3.org/2000/svg" width="27" height="27" viewBox="0 0 27 27" fill="none">
<path d="M26.7311 8.10015C26.7311 8.10015 26.4674 6.23862 25.6553 5.42124C24.627 4.34546 23.4773 4.34019 22.95 4.2769C19.1742 4.00269 13.5053 4.00269 13.5053 4.00269H13.4947C13.4947 4.00269 7.82578 4.00269 4.05 4.2769C3.52266 4.34019 2.37305 4.34546 1.34473 5.42124C0.532617 6.23862 0.274219 8.10015 0.274219 8.10015C0.274219 8.10015 0 10.2886 0 12.4718V14.5179C0 16.7011 0.268945 18.8896 0.268945 18.8896C0.268945 18.8896 0.532617 20.7511 1.33945 21.5685C2.36777 22.6443 3.71777 22.6074 4.31895 22.7234C6.48105 22.9291 13.5 22.9923 13.5 22.9923C13.5 22.9923 19.1742 22.9818 22.95 22.7128C23.4773 22.6496 24.627 22.6443 25.6553 21.5685C26.4674 20.7511 26.7311 18.8896 26.7311 18.8896C26.7311 18.8896 27 16.7064 27 14.5179V12.4718C27 10.2886 26.7311 8.10015 26.7311 8.10015ZM10.7104 17.0017V9.41323L18.0035 13.2207L10.7104 17.0017Z" fill="white"/>
</svg>